<svg width="201" height="51" viewBox="0 0 201 51" fill="none" xmlns="http://www.w3.org/2000/svg">
<path d="M50.66 23.96C50.66 22.5733 50.96 21.34 51.56 20.26C52.16 19.1667 52.9933 18.32 54.06 17.72C55.14 17.1067 56.36 16.8 57.72 16.8C59.3867 16.8 60.8133 17.24 62 18.12C63.1867 19 63.98 20.2 64.38 21.72H60.62C60.34 21.1333 59.94 20.6867 59.42 20.38C58.9133 20.0733 58.3333 19.92 57.68 19.92C56.6267 19.92 55.7733 20.2867 55.12 21.02C54.4667 21.7533 54.14 22.7333 54.14 23.96C54.14 25.1867 54.4667 26.1667 55.12 26.9C55.7733 27.6333 56.6267 28 57.68 28C58.3333 28 58.9133 27.8467 59.42 27.54C59.94 27.2333 60.34 26.7867 60.62 26.2H64.38C63.98 27.72 63.1867 28.92 62 29.8C60.8133 30.6667 59.3867 31.1 57.72 31.1C56.36 31.1 55.14 30.8 54.06 30.2C52.9933 29.5867 52.16 28.74 51.56 27.66C50.96 26.58 50.66 25.3467 50.66 23.96ZM71.5544 31.16C70.461 31.16 69.4744 30.9267 68.5944 30.46C67.7277 29.9933 67.041 29.3267 66.5344 28.46C66.041 27.5933 65.7944 26.58 65.7944 25.42C65.7944 24.2733 66.0477 23.2667 66.5544 22.4C67.061 21.52 67.7544 20.8467 68.6344 20.38C69.5144 19.9133 70.501 19.68 71.5944 19.68C72.6877 19.68 73.6744 19.9133 74.5544 20.38C75.4344 20.8467 76.1277 21.52 76.6344 22.4C77.141 23.2667 77.3944 24.2733 77.3944 25.42C77.3944 26.5667 77.1344 27.58 76.6144 28.46C76.1077 29.3267 75.4077 29.9933 74.5144 30.46C73.6344 30.9267 72.6477 31.16 71.5544 31.16ZM71.5544 28.2C72.2077 28.2 72.761 27.96 73.2144 27.48C73.681 27 73.9144 26.3133 73.9144 25.42C73.9144 24.5267 73.6877 23.84 73.2344 23.36C72.7944 22.88 72.2477 22.64 71.5944 22.64C70.9277 22.64 70.3744 22.88 69.9344 23.36C69.4944 23.8267 69.2744 24.5133 69.2744 25.42C69.2744 26.3133 69.4877 27 69.9144 27.48C70.3544 27.96 70.901 28.2 71.5544 28.2ZM93.4488 19.72C94.8354 19.72 95.9354 20.14 96.7488 20.98C97.5754 21.82 97.9888 22.9867 97.9888 24.48V31H94.5888V24.94C94.5888 24.22 94.3954 23.6667 94.0088 23.28C93.6354 22.88 93.1154 22.68 92.4488 22.68C91.7821 22.68 91.2554 22.88 90.8688 23.28C90.4954 23.6667 90.3088 24.22 90.3088 24.94V31H86.9088V24.94C86.9088 24.22 86.7154 23.6667 86.3288 23.28C85.9554 22.88 85.4354 22.68 84.7688 22.68C84.1021 22.68 83.5754 22.88 83.1888 23.28C82.8154 23.6667 82.6288 24.22 82.6288 24.94V31H79.2088V19.84H82.6288V21.24C82.9754 20.7733 83.4288 20.4067 83.9888 20.14C84.5488 19.86 85.1821 19.72 85.8888 19.72C86.7288 19.72 87.4754 19.9 88.1288 20.26C88.7954 20.62 89.3154 21.1333 89.6888 21.8C90.0754 21.1867 90.6021 20.6867 91.2688 20.3C91.9354 19.9133 92.6621 19.72 93.4488 19.72ZM105.981 22.68H104.141V31H100.721V22.68H99.4806V19.84H100.721V19.52C100.721 18.1467 101.114 17.1067 101.901 16.4C102.687 15.68 103.841 15.32 105.361 15.32C105.614 15.32 105.801 15.3267 105.921 15.34V18.24C105.267 18.2 104.807 18.2933 104.541 18.52C104.274 18.7467 104.141 19.1533 104.141 19.74V19.84H105.981V22.68ZM112.668 31.16C111.574 31.16 110.588 30.9267 109.708 30.46C108.841 29.9933 108.154 29.3267 107.648 28.46C107.154 27.5933 106.908 26.58 106.908 25.42C106.908 24.2733 107.161 23.2667 107.668 22.4C108.174 21.52 108.868 20.8467 109.748 20.38C110.628 19.9133 111.614 19.68 112.708 19.68C113.801 19.68 114.788 19.9133 115.668 20.38C116.548 20.8467 117.241 21.52 117.748 22.4C118.254 23.2667 118.508 24.2733 118.508 25.42C118.508 26.5667 118.248 27.58 117.728 28.46C117.221 29.3267 116.521 29.9933 115.628 30.46C114.748 30.9267 113.761 31.16 112.668 31.16ZM112.668 28.2C113.321 28.2 113.874 27.96 114.328 27.48C114.794 27 115.028 26.3133 115.028 25.42C115.028 24.5267 114.801 23.84 114.348 23.36C113.908 22.88 113.361 22.64 112.708 22.64C112.041 22.64 111.488 22.88 111.048 23.36C110.608 23.8267 110.388 24.5133 110.388 25.42C110.388 26.3133 110.601 27 111.028 27.48C111.468 27.96 112.014 28.2 112.668 28.2ZM123.742 21.7C124.142 21.0867 124.642 20.6067 125.242 20.26C125.842 19.9 126.509 19.72 127.242 19.72V23.34H126.302C125.449 23.34 124.809 23.5267 124.382 23.9C123.955 24.26 123.742 24.9 123.742 25.82V31H120.322V19.84H123.742V21.7ZM135.097 28.1V31H133.357C132.117 31 131.15 30.7 130.457 30.1C129.763 29.4867 129.417 28.4933 129.417 27.12V22.68H128.057V19.84H129.417V17.12H132.837V19.84H135.077V22.68H132.837V27.16C132.837 27.4933 132.917 27.7333 133.077 27.88C133.237 28.0267 133.503 28.1 133.877 28.1H135.097ZM153.4 16.96V31H149.98V25.22H144.66V31H141.24V16.96H144.66V22.46H149.98V16.96H153.4ZM160.949 31.16C159.856 31.16 158.869 30.9267 157.989 30.46C157.122 29.9933 156.436 29.3267 155.929 28.46C155.436 27.5933 155.189 26.58 155.189 25.42C155.189 24.2733 155.442 23.2667 155.949 22.4C156.456 21.52 157.149 20.8467 158.029 20.38C158.909 19.9133 159.896 19.68 160.989 19.68C162.082 19.68 163.069 19.9133 163.949 20.38C164.829 20.8467 165.522 21.52 166.029 22.4C166.536 23.2667 166.789 24.2733 166.789 25.42C166.789 26.5667 166.529 27.58 166.009 28.46C165.502 29.3267 164.802 29.9933 163.909 30.46C163.029 30.9267 162.042 31.16 160.949 31.16ZM160.949 28.2C161.602 28.2 162.156 27.96 162.609 27.48C163.076 27 163.309 26.3133 163.309 25.42C163.309 24.5267 163.082 23.84 162.629 23.36C162.189 22.88 161.642 22.64 160.989 22.64C160.322 22.64 159.769 22.88 159.329 23.36C158.889 23.8267 158.669 24.5133 158.669 25.42C158.669 26.3133 158.882 27 159.309 27.48C159.749 27.96 160.296 28.2 160.949 28.2ZM182.843 19.72C184.23 19.72 185.33 20.14 186.143 20.98C186.97 21.82 187.383 22.9867 187.383 24.48V31H183.983V24.94C183.983 24.22 183.79 23.6667 183.403 23.28C183.03 22.88 182.51 22.68 181.843 22.68C181.177 22.68 180.65 22.88 180.263 23.28C179.89 23.6667 179.703 24.22 179.703 24.94V31H176.303V24.94C176.303 24.22 176.11 23.6667 175.723 23.28C175.35 22.88 174.83 22.68 174.163 22.68C173.497 22.68 172.97 22.88 172.583 23.28C172.21 23.6667 172.023 24.22 172.023 24.94V31H168.603V19.84H172.023V21.24C172.37 20.7733 172.823 20.4067 173.383 20.14C173.943 19.86 174.577 19.72 175.283 19.72C176.123 19.72 176.87 19.9 177.523 20.26C178.19 20.62 178.71 21.1333 179.083 21.8C179.47 21.1867 179.997 20.6867 180.663 20.3C181.33 19.9133 182.057 19.72 182.843 19.72ZM200.295 25.24C200.295 25.56 200.275 25.8933 200.235 26.24H192.495C192.548 26.9333 192.768 27.4667 193.155 27.84C193.555 28.2 194.042 28.38 194.615 28.38C195.468 28.38 196.062 28.02 196.395 27.3H200.035C199.848 28.0333 199.508 28.6933 199.015 29.28C198.535 29.8667 197.928 30.3267 197.195 30.66C196.462 30.9933 195.642 31.16 194.735 31.16C193.642 31.16 192.668 30.9267 191.815 30.46C190.962 29.9933 190.295 29.3267 189.815 28.46C189.335 27.5933 189.095 26.58 189.095 25.42C189.095 24.26 189.328 23.2467 189.795 22.38C190.275 21.5133 190.942 20.8467 191.795 20.38C192.648 19.9133 193.628 19.68 194.735 19.68C195.815 19.68 196.775 19.9067 197.615 20.36C198.455 20.8133 199.108 21.46 199.575 22.3C200.055 23.14 200.295 24.12 200.295 25.24ZM196.795 24.34C196.795 23.7533 196.595 23.2867 196.195 22.94C195.795 22.5933 195.295 22.42 194.695 22.42C194.122 22.42 193.635 22.5867 193.235 22.92C192.848 23.2533 192.608 23.7267 192.515 24.34H196.795Z" fill="white"/>
<path d="M50.66 23.96C50.66 22.5733 50.96 21.34 51.56 20.26C52.16 19.1667 52.9933 18.32 54.06 17.72C55.14 17.1067 56.36 16.8 57.72 16.8C59.3867 16.8 60.8133 17.24 62 18.12C63.1867 19 63.98 20.2 64.38 21.72H60.62C60.34 21.1333 59.94 20.6867 59.42 20.38C58.9133 20.0733 58.3333 19.92 57.68 19.92C56.6267 19.92 55.7733 20.2867 55.12 21.02C54.4667 21.7533 54.14 22.7333 54.14 23.96C54.14 25.1867 54.4667 26.1667 55.12 26.9C55.7733 27.6333 56.6267 28 57.68 28C58.3333 28 58.9133 27.8467 59.42 27.54C59.94 27.2333 60.34 26.7867 60.62 26.2H64.38C63.98 27.72 63.1867 28.92 62 29.8C60.8133 30.6667 59.3867 31.1 57.72 31.1C56.36 31.1 55.14 30.8 54.06 30.2C52.9933 29.5867 52.16 28.74 51.56 27.66C50.96 26.58 50.66 25.3467 50.66 23.96ZM71.5544 31.16C70.461 31.16 69.4744 30.9267 68.5944 30.46C67.7277 29.9933 67.041 29.3267 66.5344 28.46C66.041 27.5933 65.7944 26.58 65.7944 25.42C65.7944 24.2733 66.0477 23.2667 66.5544 22.4C67.061 21.52 67.7544 20.8467 68.6344 20.38C69.5144 19.9133 70.501 19.68 71.5944 19.68C72.6877 19.68 73.6744 19.9133 74.5544 20.38C75.4344 20.8467 76.1277 21.52 76.6344 22.4C77.141 23.2667 77.3944 24.2733 77.3944 25.42C77.3944 26.5667 77.1344 27.58 76.6144 28.46C76.1077 29.3267 75.4077 29.9933 74.5144 30.46C73.6344 30.9267 72.6477 31.16 71.5544 31.16ZM71.5544 28.2C72.2077 28.2 72.761 27.96 73.2144 27.48C73.681 27 73.9144 26.3133 73.9144 25.42C73.9144 24.5267 73.6877 23.84 73.2344 23.36C72.7944 22.88 72.2477 22.64 71.5944 22.64C70.9277 22.64 70.3744 22.88 69.9344 23.36C69.4944 23.8267 69.2744 24.5133 69.2744 25.42C69.2744 26.3133 69.4877 27 69.9144 27.48C70.3544 27.96 70.901 28.2 71.5544 28.2ZM93.4488 19.72C94.8354 19.72 95.9354 20.14 96.7488 20.98C97.5754 21.82 97.9888 22.9867 97.9888 24.48V31H94.5888V24.94C94.5888 24.22 94.3954 23.6667 94.0088 23.28C93.6354 22.88 93.1154 22.68 92.4488 22.68C91.7821 22.68 91.2554 22.88 90.8688 23.28C90.4954 23.6667 90.3088 24.22 90.3088 24.94V31H86.9088V24.94C86.9088 24.22 86.7154 23.6667 86.3288 23.28C85.9554 22.88 85.4354 22.68 84.7688 22.68C84.1021 22.68 83.5754 22.88 83.1888 23.28C82.8154 23.6667 82.6288 24.22 82.6288 24.94V31H79.2088V19.84H82.6288V21.24C82.9754 20.7733 83.4288 20.4067 83.9888 20.14C84.5488 19.86 85.1821 19.72 85.8888 19.72C86.7288 19.72 87.4754 19.9 88.1288 20.26C88.7954 20.62 89.3154 21.1333 89.6888 21.8C90.0754 21.1867 90.6021 20.6867 91.2688 20.3C91.9354 19.9133 92.6621 19.72 93.4488 19.72ZM105.981 22.68H104.141V31H100.721V22.68H99.4806V19.84H100.721V19.52C100.721 18.1467 101.114 17.1067 101.901 16.4C102.687 15.68 103.841 15.32 105.361 15.32C105.614 15.32 105.801 15.3267 105.921 15.34V18.24C105.267 18.2 104.807 18.2933 104.541 18.52C104.274 18.7467 104.141 19.1533 104.141 19.74V19.84H105.981V22.68ZM112.668 31.16C111.574 31.16 110.588 30.9267 109.708 30.46C108.841 29.9933 108.154 29.3267 107.648 28.46C107.154 27.5933 106.908 26.58 106.908 25.42C106.908 24.2733 107.161 23.2667 107.668 22.4C108.174 21.52 108.868 20.8467 109.748 20.38C110.628 19.9133 111.614 19.68 112.708 19.68C113.801 19.68 114.788 19.9133 115.668 20.38C116.548 20.8467 117.241 21.52 117.748 22.4C118.254 23.2667 118.508 24.2733 118.508 25.42C118.508 26.5667 118.248 27.58 117.728 28.46C117.221 29.3267 116.521 29.9933 115.628 30.46C114.748 30.9267 113.761 31.16 112.668 31.16ZM112.668 28.2C113.321 28.2 113.874 27.96 114.328 27.48C114.794 27 115.028 26.3133 115.028 25.42C115.028 24.5267 114.801 23.84 114.348 23.36C113.908 22.88 113.361 22.64 112.708 22.64C112.041 22.64 111.488 22.88 111.048 23.36C110.608 23.8267 110.388 24.5133 110.388 25.42C110.388 26.3133 110.601 27 111.028 27.48C111.468 27.96 112.014 28.2 112.668 28.2ZM123.742 21.7C124.142 21.0867 124.642 20.6067 125.242 20.26C125.842 19.9 126.509 19.72 127.242 19.72V23.34H126.302C125.449 23.34 124.809 23.5267 124.382 23.9C123.955 24.26 123.742 24.9 123.742 25.82V31H120.322V19.84H123.742V21.7ZM135.097 28.1V31H133.357C132.117 31 131.15 30.7 130.457 30.1C129.763 29.4867 129.417 28.4933 129.417 27.12V22.68H128.057V19.84H129.417V17.12H132.837V19.84H135.077V22.68H132.837V27.16C132.837 27.4933 132.917 27.7333 133.077 27.88C133.237 28.0267 133.503 28.1 133.877 28.1H135.097ZM153.4 16.96V31H149.98V25.22H144.66V31H141.24V16.96H144.66V22.46H149.98V16.96H153.4ZM160.949 31.16C159.856 31.16 158.869 30.9267 157.989 30.46C157.122 29.9933 156.436 29.3267 155.929 28.46C155.436 27.5933 155.189 26.58 155.189 25.42C155.189 24.2733 155.442 23.2667 155.949 22.4C156.456 21.52 157.149 20.8467 158.029 20.38C158.909 19.9133 159.896 19.68 160.989 19.68C162.082 19.68 163.069 19.9133 163.949 20.38C164.829 20.8467 165.522 21.52 166.029 22.4C166.536 23.2667 166.789 24.2733 166.789 25.42C166.789 26.5667 166.529 27.58 166.009 28.46C165.502 29.3267 164.802 29.9933 163.909 30.46C163.029 30.9267 162.042 31.16 160.949 31.16ZM160.949 28.2C161.602 28.2 162.156 27.96 162.609 27.48C163.076 27 163.309 26.3133 163.309 25.42C163.309 24.5267 163.082 23.84 162.629 23.36C162.189 22.88 161.642 22.64 160.989 22.64C160.322 22.64 159.769 22.88 159.329 23.36C158.889 23.8267 158.669 24.5133 158.669 25.42C158.669 26.3133 158.882 27 159.309 27.48C159.749 27.96 160.296 28.2 160.949 28.2ZM182.843 19.72C184.23 19.72 185.33 20.14 186.143 20.98C186.97 21.82 187.383 22.9867 187.383 24.48V31H183.983V24.94C183.983 24.22 183.79 23.6667 183.403 23.28C183.03 22.88 182.51 22.68 181.843 22.68C181.177 22.68 180.65 22.88 180.263 23.28C179.89 23.6667 179.703 24.22 179.703 24.94V31H176.303V24.94C176.303 24.22 176.11 23.6667 175.723 23.28C175.35 22.88 174.83 22.68 174.163 22.68C173.497 22.68 172.97 22.88 172.583 23.28C172.21 23.6667 172.023 24.22 172.023 24.94V31H168.603V19.84H172.023V21.24C172.37 20.7733 172.823 20.4067 173.383 20.14C173.943 19.86 174.577 19.72 175.283 19.72C176.123 19.72 176.87 19.9 177.523 20.26C178.19 20.62 178.71 21.1333 179.083 21.8C179.47 21.1867 179.997 20.6867 180.663 20.3C181.33 19.9133 182.057 19.72 182.843 19.72ZM200.295 25.24C200.295 25.56 200.275 25.8933 200.235 26.24H192.495C192.548 26.9333 192.768 27.4667 193.155 27.84C193.555 28.2 194.042 28.38 194.615 28.38C195.468 28.38 196.062 28.02 196.395 27.3H200.035C199.848 28.0333 199.508 28.6933 199.015 29.28C198.535 29.8667 197.928 30.3267 197.195 30.66C196.462 30.9933 195.642 31.16 194.735 31.16C193.642 31.16 192.668 30.9267 191.815 30.46C190.962 29.9933 190.295 29.3267 189.815 28.46C189.335 27.5933 189.095 26.58 189.095 25.42C189.095 24.26 189.328 23.2467 189.795 22.38C190.275 21.5133 190.942 20.8467 191.795 20.38C192.648 19.9133 193.628 19.68 194.735 19.68C195.815 19.68 196.775 19.9067 197.615 20.36C198.455 20.8133 199.108 21.46 199.575 22.3C200.055 23.14 200.295 24.12 200.295 25.24ZM196.795 24.34C196.795 23.7533 196.595 23.2867 196.195 22.94C195.795 22.5933 195.295 22.42 194.695 22.42C194.122 22.42 193.635 22.5867 193.235 22.92C192.848 23.2533 192.608 23.7267 192.515 24.34H196.795Z" fill="url(#paint0_linear_1746_39)"/>
<path d="M11.2174 5.60876L20.5652 1.86963L29.913 5.60876L40.1957 7.47832L39.2609 23.3696L36.4565 32.7175L29.913 41.1305L20.5652 47.674L12.1522 41.1305L5.6087 32.7175L2.80435 23.3696L1.86957 7.47832L11.2174 5.60876Z" fill="#356283" stroke="#7CA0BA"/>
<path d="M12.175 8.04817L20.6108 4.67383L29.0467 8.04817L38.3261 9.73534L37.4825 24.0762L34.9517 32.512L29.0467 40.1043L20.6108 46.0095L13.0186 40.1043L7.11348 32.512L4.58272 24.0762L3.73914 9.73534L12.175 8.04817Z" fill="#356283" stroke="#7CA0BA"/>
<path d="M3 9L3.5 22.5001L6 31.5001L7 33.5001M7.5 34.5001L7 33.5001M3 8L13 7L7 9L2 8L2.5 10.5L6.5 7L3 8.5L2.5 9H3.5L20 4.5L13.5 7.5L11.5 6H15.5L14 7L11.5 8L20.5 3L14 5L20.5 2.5V4L21 2.5L30 6L29.5 5.86111M29.5 5.86111L21 3.5L29 7.5L38.5 9H39.5V8L29.5 5.86111ZM39 8.5L38.5 23L39.5 9.5L37 29.5L39 22.5001L35.5 33L30.5 39.5L24 44.5L21 47L18 45L12 40L7 33.5001" stroke="#7CA0BA"/>
<path d="M23.3696 21.5H19.6304V26.1739H23.3696V21.5Z" fill="#356283"/>
<path d="M9 23.6001L19.5007 15.1995C20.3772 14.4983 21.6228 14.4983 22.4993 15.1995L33 23.6001" stroke="white"/>
<path d="M21 22.4V23.6V24.8V21.2M18.6 20H23.4V26H18.6V20Z" stroke="white"/>
<path d="M28.2 20C28.2 15.2 28.2 14 28.2 14" stroke="white"/>
<path d="M2.80432 9.34771L20.5652 3.73901M20.5652 3.73901L2.80432 8.41293M20.5652 3.73901L28.9782 6.54336L39.2608 8.41293" stroke="#7CA0BA"/>
<defs>
<linearGradient id="paint0_linear_1746_39" x1="84.4487" y1="-6.16483" x2="132.761" y2="74.4257" gradientUnits="userSpaceOnUse">
<stop stop-color="#17C2ED"/>
<stop offset="1" stop-color="#1C7DD7"/>
</linearGradient>
</defs>
</svg>
